<svg xmlns="http://www.w3.org/2000/svg" fill="#fff" viewBox="0 0 340.4 105.3"><path fill="#fff" d="M44.6 16.1C20 16.1 0 36.1 0 60.7s20 44.6 44.6 44.6 44.6-20 44.6-44.6V16.1H44.6zM37 49.7L29.3 72c-.1.3-.3.4-.6.4h-5.9c-.3 0-.5-.2-.6-.4l-7.7-22.3c-.1-.4.2-.8.6-.8h5.1c.3 0 .5.2.6.4l4.9 15.3h.1l4.8-15.3c.1-.3.3-.4.6-.4h5.1c.5 0 .8.4.7.8zm18.3 3.8c0 .3-.3.6-.6.6h-.2c-4.8-.2-8.1 3.6-8.3 8.4v9.3c0 .3-.3.6-.6.6h-4.9c-.3 0-.6-.3-.6-.6V49.5c0-.3.3-.6.6-.6h4.7c.3 0 .6.3.6.6v2.6c2.6-3.2 5.8-3.6 8.8-3.4.3 0 .6.3.6.6v4.2zm11.9 19.3c-5.2 0-8.8-3.8-8.8-9.5V43.1c0-.3.2-.6.6-.6h5c.3 0 .5.2.5.5v5.9h7.7c.3 0 .5.2.5.5v4.1c0 .3-.2.5-.5.5h-7.7v9.5c0 2 1.1 3.3 2.8 3.3 1.5 0 2.7-1.1 2.8-2.9.1-.5.4-.8.8-.8h4.3c.3 0 .5.2.5.5v.1c0 5.1-3.7 9.1-8.5 9.1z"/><path fill="#fff" d="M125.1 86V42.3h-13.5v-1.9l13.5-3.2V18.8l15.2-5.5v24.3h20.6v4.5h-20.6v45.2c0 8.7 2.5 12 8.4 12 4.2 0 8.4-2.9 12.2-9.7l1.7 1.2c-4.6 9.4-11 14.5-20.1 14.5-11.3 0-17.4-6-17.4-19.3zM167 88.6c0-5.6 2.6-11.3 8.7-14.6 10.7-5.9 27.7-6.8 31-8.4V55.2c0-10.9-3.2-16.1-11.7-16.1-4.9 0-9.4 1.6-12 4.2 2.5 2.3 3.9 4.9 3.9 7.8 0 5.1-3 8.5-8.7 8.5-5.1 0-8.4-3.8-8.4-8.5 0-8.5 10.6-14.8 26.9-14.8s25.1 6.4 25.1 21.3v33.7c0 7.1 2.6 10.1 11 6.7l.6 1.4c-5.1 3.2-8.8 4.9-13.9 4.9-8.1 0-11.2-3.3-12-11.2h-.6c-5.5 6.4-12.3 11.4-21.3 11.4-13 .2-18.6-7.8-18.6-15.9zm39.7 1.3V68.3c-19.3 3.8-23.5 8-23.5 17.8 0 7 3.3 11.9 10.7 11.9 5.2 0 9.9-4 12.8-8.1zM236.9 88.6c0-5.6 2.6-11.3 8.7-14.6 10.7-5.9 27.7-6.8 31-8.4V55.2c0-10.9-3.2-16.1-11.7-16.1-4.9 0-9.4 1.6-12 4.2 2.5 2.3 3.9 4.9 3.9 7.8 0 5.1-3 8.5-8.7 8.5-5.1 0-8.4-3.8-8.4-8.5 0-8.5 10.6-14.8 26.9-14.8s25.1 6.4 25.1 21.3v33.7c0 7.1 2.6 10.1 11 6.7l.6 1.4c-5.1 3.2-8.8 4.9-13.9 4.9-8.1 0-11.2-3.3-12-11.2h-.6c-5.5 6.4-12.3 11.4-21.3 11.4-12.9.2-18.6-7.8-18.6-15.9zm39.7 1.3V68.3c-19.3 3.8-23.5 8-23.5 17.8 0 7 3.3 11.9 10.7 11.9 5.3 0 9.9-4 12.8-8.1zM304.5 102.1c8.4-.1 10.4-1.2 10.4-5.5V10c0-4.9-1.4-7.1-11.6-7.4V.9l26.9-.9v96.6c0 4.3 1.9 5.4 10.3 5.5v1.7h-35.9v-1.7z"/></svg>